<svg width="1582" height="327" viewBox="0 0 1582 327" fill="none" xmlns="http://www.w3.org/2000/svg">
<path d="M1408.46 327C1397.99 327 1390.15 322.638 1384.92 313.914C1379.68 305.19 1379.39 291.669 1384.04 273.349L1417.61 146.853C1420.81 135.512 1421.24 127.661 1418.92 123.299C1416.88 118.937 1413.83 116.756 1409.76 116.756C1403.95 116.756 1397.27 120.827 1389.71 128.97C1382.15 136.821 1374.16 147.58 1365.73 161.248C1357.6 174.915 1349.6 190.472 1341.76 207.92C1333.91 225.368 1326.64 243.542 1319.96 262.444C1313.28 281.345 1307.75 299.956 1303.39 318.276C1302.52 321.475 1300.49 323.074 1297.29 323.074H1280.29C1276.22 323.074 1274.62 321.184 1275.49 317.404L1315.6 146.853C1318.22 135.512 1318.51 127.661 1316.47 123.299C1314.73 118.937 1311.82 116.756 1307.75 116.756C1302.23 116.756 1295.69 120.827 1288.14 128.97C1280.58 136.821 1272.73 147.58 1264.6 161.248C1256.46 174.915 1248.47 190.472 1240.62 207.92C1232.77 225.368 1225.51 243.542 1218.82 262.444C1212.14 281.345 1206.76 299.956 1202.69 318.276C1201.82 321.475 1199.79 323.074 1196.59 323.074H1178.72C1174.65 323.074 1173.05 321.184 1173.92 317.404L1215.34 143.364C1216.79 136.966 1216.93 132.023 1215.77 128.533C1214.9 124.753 1212.28 122.863 1207.92 122.863C1202.69 122.863 1196.88 126.789 1190.49 134.64C1184.38 142.201 1177.41 156.74 1169.56 178.259C1168.4 182.039 1166.36 183.93 1163.46 183.93C1159.1 183.93 1157.94 181.312 1159.97 176.078C1166.36 156.013 1173.05 140.31 1180.02 128.97C1187.29 117.629 1194.56 109.632 1201.82 104.979C1209.09 100.326 1215.77 98 1221.87 98C1231.46 98 1238.29 101.635 1242.36 108.905C1246.43 115.884 1246.58 127.516 1242.8 143.8L1231.9 190.909C1231.61 192.944 1232.05 194.107 1233.21 194.398C1234.37 194.689 1235.39 193.962 1236.26 192.217C1253.12 157.322 1268.37 132.895 1282.03 118.937C1295.69 104.979 1308.19 98 1319.52 98C1330.28 98 1337.83 102.362 1342.19 111.086C1346.84 119.81 1347.13 133.186 1343.07 151.215L1333.91 190.909C1333.62 192.944 1334.06 194.107 1335.22 194.398C1336.38 194.689 1337.4 193.962 1338.27 192.217C1349.31 168.663 1359.63 150.052 1369.22 136.385C1379.1 122.427 1388.4 112.54 1397.12 106.724C1405.84 100.908 1413.98 98 1421.53 98C1432.29 98 1440.13 102.362 1445.07 111.086C1450.02 119.81 1450.02 133.186 1445.07 151.215L1411.94 277.71C1409.91 285.853 1409.76 291.959 1411.51 296.03C1413.25 300.102 1416.45 302.137 1421.1 302.137C1426.91 302.137 1432.58 298.357 1438.1 290.796C1443.91 282.945 1449.87 268.26 1455.97 246.741C1456.85 243.542 1458.73 241.943 1461.64 241.943C1463.97 241.943 1465.27 242.815 1465.56 244.56C1466.15 246.305 1466.15 248.34 1465.56 250.667C1460.04 270.441 1454.08 285.998 1447.69 297.339C1441.3 308.389 1434.76 316.095 1428.07 320.457C1421.68 324.819 1415.14 327 1408.46 327Z" fill="#2A86D9"/>
<path d="M1524.38 98C1541.55 98.0001 1555.38 105.124 1565.85 119.373C1576.62 133.331 1582 156.159 1582 187.855C1582 197.048 1578.66 201.833 1571.99 202.22C1571.41 147.768 1550.37 104 1524.5 104C1498.27 104 1477 148.995 1477 204.5C1477 221.918 1479.09 238.301 1482.78 252.584C1485.03 264.212 1488.43 273.895 1492.96 281.636C1497.3 289.058 1502.22 294.692 1507.71 298.54C1512.93 302.714 1518.59 305 1524.5 305C1525.63 305 1526.75 304.914 1527.87 304.749C1538.73 304.649 1547.61 300.728 1554.5 292.978C1561.49 285.126 1567.16 271.895 1571.52 253.284C1572.4 250.085 1574.29 248.485 1577.2 248.485C1580.69 248.486 1582 251.394 1581.13 257.21C1576.47 283.09 1569.05 301.265 1558.87 311.733C1548.68 321.911 1536.31 327 1521.77 327C1507.8 327 1495.29 322.347 1484.23 313.042C1473.17 303.737 1464.3 290.651 1457.6 273.785C1451.2 256.628 1448 236.854 1448 214.463C1448 191.49 1451.35 171.28 1458.04 153.832C1464.73 136.385 1473.9 122.717 1485.54 112.83C1497.18 102.943 1510.13 98 1524.38 98ZM1555.04 147.741C1556.4 147.703 1557.98 148.062 1559.48 148.756C1560.97 149.45 1562.27 150.43 1563.11 151.495C1563.96 152.56 1564.28 153.621 1564.04 154.457C1563.55 156.14 1563.05 157.824 1562.51 159.484C1561.85 161.507 1561.12 163.497 1560.23 165.413C1559.61 166.754 1558.95 168.078 1558.26 169.389C1558.19 169.524 1558.12 169.658 1558.05 169.793C1557.89 171.09 1557.71 172.37 1557.46 173.217C1557.25 173.916 1556.83 174.302 1556.48 174.632C1556.23 174.859 1556.01 175.06 1555.91 175.319C1555.86 175.458 1555.8 175.654 1555.72 175.889C1555.41 176.849 1554.88 178.48 1553.87 179.721C1553.42 180.271 1552.77 180.852 1552.15 181.405C1551.26 182.197 1550.43 182.935 1550.33 183.458C1550.17 184.377 1549.55 185.232 1549 185.986C1548.48 186.706 1548.03 187.336 1548.09 187.845C1548.17 188.453 1547.86 188.799 1547.41 189.312C1547.09 189.667 1546.7 190.104 1546.32 190.766C1545.88 191.529 1545.41 191.997 1545.01 192.394C1544.45 192.952 1544.02 193.372 1544.02 194.288C1544.01 195.306 1543.85 196.297 1543.41 196.932C1543.2 197.221 1543.05 197.588 1542.89 197.969C1542.68 198.473 1542.45 199.004 1542.1 199.417C1541.8 199.757 1541.36 199.947 1540.97 200.115C1540.85 200.168 1540.73 200.218 1540.62 200.27C1540.48 200.584 1540.34 200.899 1540.21 201.216C1540.23 201.288 1540.26 201.366 1540.29 201.446C1540.42 201.849 1540.59 202.345 1540.56 202.845C1540.51 203.637 1540.07 204.151 1539.61 204.692C1539.25 205.114 1538.88 205.554 1538.66 206.154C1538.51 206.564 1538.42 207.068 1538.33 207.566C1538.2 208.307 1538.07 209.038 1537.75 209.44C1537.63 209.591 1537.38 209.653 1537.13 209.713C1537.13 209.713 1537.13 209.714 1537.12 209.714C1537.11 209.718 1537.09 209.722 1537.08 209.726C1536.7 210.893 1536.34 212.067 1535.99 213.245C1535.99 213.362 1535.99 213.481 1536 213.598C1536 214.168 1536.01 214.723 1536.17 215.161C1536.24 215.323 1536.26 215.533 1536.25 215.777L1532.67 220.849L1529.07 219.482C1528.6 219.585 1527.99 219.617 1527.35 219.649C1526.72 219.682 1526.07 219.716 1525.52 219.821C1525.2 219.883 1524.96 219.627 1524.71 219.363C1524.47 219.117 1524.23 218.865 1523.92 218.858C1523.76 218.855 1523.58 218.908 1523.39 218.966C1523.22 219.016 1523.04 219.07 1522.86 219.09C1522.69 219.108 1522.36 218.931 1521.93 218.706C1521.66 218.567 1521.36 218.41 1521.04 218.267C1520.13 218.229 1519.22 218.187 1518.32 218.136C1518.1 218.28 1517.89 218.482 1517.71 218.756C1517.58 218.952 1517.46 219.192 1517.33 219.438C1517.16 219.772 1516.98 220.118 1516.77 220.382C1516.6 220.588 1516.44 220.652 1516.37 220.539C1516.33 220.487 1516.31 220.397 1516.29 220.316C1516.27 220.224 1516.26 220.141 1516.22 220.136C1516.19 220.132 1516.15 220.189 1516.1 220.256C1516.02 220.363 1515.92 220.502 1515.8 220.486C1515.38 220.429 1514.91 220.291 1514.45 220.156C1513.94 220.006 1513.44 219.86 1513.02 219.83C1512.56 219.797 1511.95 219.45 1511.35 219.104C1510.92 218.862 1510.5 218.621 1510.12 218.484C1509.75 218.351 1509.33 218.403 1508.93 218.454C1508.44 218.516 1507.97 218.575 1507.63 218.307C1507.56 218.252 1507.51 217.988 1507.45 217.659C1507.4 217.425 1507.35 217.158 1507.29 216.907C1506.81 216.818 1506.33 216.72 1505.85 216.612C1505.83 216.642 1505.8 216.673 1505.78 216.704L1505.78 216.707C1505.24 217.417 1504.5 218.387 1503.86 217.608C1503.7 217.41 1503.63 217.088 1503.58 216.798C1503.52 216.513 1503.47 216.258 1503.33 216.182C1503.18 216.096 1502.97 216.223 1502.73 216.362C1502.39 216.557 1502.02 216.776 1501.75 216.458C1501.73 216.436 1501.71 216.412 1501.69 216.388C1501.49 216.16 1501.19 215.824 1500.95 215.213C1499.95 214.877 1498.96 214.517 1497.97 214.141C1496.32 213.513 1494.68 212.843 1493.04 212.172C1492.24 211.843 1491.59 210.949 1491.22 209.647C1490.86 208.344 1490.81 206.747 1491.11 205.158C1491.4 203.57 1492.01 202.096 1492.82 201.01C1493.63 199.925 1494.56 199.327 1495.43 199.306C1496.83 199.275 1498.24 199.243 1499.64 199.233C1499.71 199.214 1499.79 199.195 1499.87 199.179C1500.44 199.054 1501.01 198.697 1501.58 198.34C1501.71 198.258 1501.85 198.176 1501.98 198.097C1502.98 197.495 1504.58 198.112 1505.46 198.451C1505.47 198.457 1505.49 198.464 1505.5 198.47C1505.71 198.55 1505.92 198.598 1506.15 198.654C1506.72 198.787 1507.49 198.967 1509.01 199.751C1509.48 199.82 1509.95 199.898 1510.42 199.984C1515.49 200.923 1520.43 202.493 1525.36 204.189C1525.42 204.197 1525.49 204.206 1525.56 204.214C1526.25 204.298 1527.02 204.395 1527.74 204.536C1528.84 202.768 1529.89 200.98 1530.86 199.156C1531.47 198.024 1532.04 196.877 1532.58 195.714C1533.08 194.643 1533.56 193.561 1534.01 192.471C1534.15 191.776 1534.24 191.098 1534.33 190.47C1534.45 189.587 1534.56 188.802 1534.76 188.202C1535.23 186.756 1536.21 185.324 1536.94 184.261C1537.06 184.087 1537.17 183.923 1537.28 183.771C1537.61 182.81 1537.93 181.846 1538.25 180.882C1538.34 180.848 1538.43 180.814 1538.52 180.78C1539.66 180.36 1540.1 179.395 1540.78 177.876C1541.08 177.214 1541.43 176.447 1541.9 175.574C1542.21 175.012 1542.66 174.859 1543.02 174.732C1543.13 174.695 1543.23 174.66 1543.32 174.618C1543.62 174.475 1543.52 174.133 1543.41 173.729C1543.27 173.206 1543.1 172.578 1543.72 172.143C1545.7 170.754 1545.34 169.572 1545.07 168.678C1544.99 168.415 1544.92 168.178 1544.92 167.967C1544.91 167.283 1545.55 166.611 1546.19 166.18C1546.7 165.837 1546.86 164.75 1546.83 163.857C1546.82 163.52 1546.99 163.147 1547.19 162.71C1547.39 162.258 1547.63 161.735 1547.74 161.104C1548 159.512 1548.16 158.674 1548.29 158.001C1548.32 157.809 1548.36 157.631 1548.39 157.452C1548.49 156.887 1548.68 156.209 1548.86 155.524C1549.09 154.705 1549.31 153.873 1549.41 153.205C1550.3 151.771 1551.24 150.358 1552.17 148.944C1552.66 148.219 1553.67 147.78 1555.04 147.741Z" fill="#2A86D9"/>
<path d="M1147.7 99.7363C1150.31 99.7363 1151.62 101.477 1151.62 104.959V293.841C1151.62 299.934 1152.5 304.286 1154.24 306.897C1155.99 309.508 1159.34 311.104 1164.28 311.685L1175.2 312.99C1178.4 313.571 1180 315.166 1180 317.777C1180 321.259 1177.82 323 1173.45 323H1100.55C1096.18 323 1094 321.404 1094 318.213C1094 315.602 1095.89 313.861 1099.67 312.99L1104.91 312.12C1112.19 310.96 1116.85 309.218 1118.88 306.897C1120.92 304.286 1121.94 299.934 1121.94 293.841V147.61C1121.94 142.388 1121.07 138.906 1119.32 137.165C1117.86 135.134 1115.1 133.828 1111.03 133.248L1101.86 131.942C1098.07 131.652 1096.18 130.056 1096.18 127.155C1096.18 124.834 1098.51 123.238 1103.17 122.367C1112.19 120.916 1119.47 118.596 1125 115.404C1130.52 112.213 1135.91 108.296 1141.15 103.653C1143.77 101.042 1145.95 99.7364 1147.7 99.7363ZM1155 54H1119V18H1155V54Z" fill="#2A86D9"/>
<path d="M951.382 323C947.016 323 944.833 321.404 944.833 318.211C944.833 315.018 946.725 313.277 950.509 312.986L970.156 309.939C975.978 309.068 979.907 307.617 981.944 305.585C983.982 303.263 985.001 299.054 985.001 292.959V31.7347C985.001 27.6712 984.127 24.7687 982.381 23.0272C980.635 21.2857 976.996 20.4149 971.466 20.4149C960.697 20.4149 950.073 25.0589 939.594 34.3469C929.116 43.6349 922.276 58.5828 919.074 79.1905L916.891 93.5578C916.309 97.3311 914.271 99.2177 910.779 99.2177C906.413 99.2177 904.521 96.7506 905.103 91.8163L909.032 13.0136C909.614 6.33787 912.234 3 916.891 3C918.928 3 920.82 3.5805 922.567 4.7415C924.313 5.61224 927.224 6.62811 931.299 7.78911C935.665 8.95011 942.505 9.53061 951.819 9.53061H1049.18C1058.5 9.53061 1065.19 8.95011 1069.26 7.78911C1073.63 6.62811 1076.69 5.61224 1078.43 4.7415C1080.47 3.5805 1082.36 3 1084.11 3C1088.77 3 1091.39 6.33787 1091.97 13.0136L1095.9 91.8163C1096.48 96.7506 1094.59 99.2177 1090.22 99.2177C1086.73 99.2177 1084.69 97.3311 1084.11 93.5578L1081.93 79.1905C1079.02 58.5828 1072.32 43.6349 1061.84 34.3469C1051.36 25.0589 1040.59 20.4149 1029.53 20.4149C1024 20.4149 1020.37 21.2857 1018.62 23.0272C1016.87 24.7687 1016 27.6712 1016 31.7347V292.959C1016 299.054 1017.02 303.263 1019.06 305.585C1021.38 307.617 1025.31 309.068 1030.84 309.939L1050.49 312.986C1054.27 313.277 1056.17 315.018 1056.17 318.211C1056.17 321.404 1053.98 323 1049.62 323H951.382Z" fill="#2A86D9"/>
<rect x="780" y="177" width="36" height="36" fill="#2A86D9"/>
<rect x="744" y="141" width="36" height="36" fill="#2A86D9"/>
<rect x="744" y="141" width="36" height="36" fill="#2A86D9"/>
<rect x="780" y="105" width="36" height="36" fill="#2A86D9"/>
<rect x="816" y="105" width="36" height="36" fill="#2A86D9"/>
<rect x="816" y="213" width="36" height="36" fill="#2A86D9"/>
<rect x="780" y="285" width="36" height="36" fill="#2A86D9"/>
<rect x="816" y="249" width="36" height="36" fill="#2A86D9"/>
<rect x="744" y="285" width="36" height="36" fill="#2A86D9"/>
<rect x="708" y="249" width="36" height="36" fill="#2A86D9"/>
<rect x="852" y="141" width="36" height="36" fill="#2A86D9"/>
<path d="M628.352 321.017C620.366 321.017 613.032 319.202 606.353 315.572C599.673 311.942 594.373 306.279 590.452 298.583C586.532 290.741 584.571 280.431 584.571 267.653C584.571 253.713 587.112 242.241 592.195 233.238C597.277 224.09 603.594 216.466 611.145 210.367C618.696 204.123 626.247 198.605 633.798 193.813C641.348 189.021 647.665 184.012 652.747 178.784C657.83 173.411 660.371 166.95 660.371 159.399C660.371 148.072 659.717 137.327 658.411 127.162C657.104 116.852 654.708 108.43 651.223 101.895C647.738 95.361 642.583 92.0937 635.758 92.0937C628.933 92.0937 622.762 94.7801 617.244 100.153C611.871 105.526 609.184 111.842 609.184 119.103C609.184 122.588 609.693 125.782 610.709 128.687C611.871 131.446 612.887 134.277 613.759 137.181C614.775 139.94 615.283 143.135 615.283 146.765C615.283 152.138 614.194 156.64 612.016 160.27C609.838 163.755 606.353 165.497 601.561 165.497C596.914 165.497 593.502 163.537 591.324 159.616C589.145 155.696 588.056 150.25 588.056 143.28C588.056 133.406 590.307 124.185 594.809 115.618C599.31 107.05 605.554 100.153 613.541 94.9253C621.527 89.6977 630.748 87.084 641.203 87.084C651.223 87.084 660.081 89.7704 667.777 95.1432C675.618 100.516 681.789 108.72 686.291 119.756C690.793 130.792 693.043 144.95 693.043 162.23V297.058C693.043 302.721 693.914 306.787 695.657 309.255C697.4 311.724 699.505 312.958 701.974 312.958C703.861 312.958 705.749 312.523 707.637 311.651C709.525 310.635 710.977 309.691 711.993 308.82L714.389 312.74C713.082 314.193 710.396 315.645 706.33 317.097C702.264 318.549 697.327 319.275 691.518 319.275C686.727 319.275 682.08 318.476 677.578 316.879C673.222 315.427 669.592 312.886 666.688 309.255C663.929 305.48 662.477 300.543 662.331 294.444C661.605 297.784 659.863 301.559 657.104 305.77C654.49 309.836 650.787 313.394 645.995 316.443C641.348 319.493 635.467 321.017 628.352 321.017ZM638.807 311.434C642.583 311.434 646.14 310.127 649.48 307.513C652.82 304.754 655.434 301.414 657.322 297.493C659.354 293.573 660.371 289.797 660.371 286.167V173.774C660.081 177.84 657.757 182.414 653.401 187.497C649.19 192.434 644.325 198.242 638.807 204.922C633.435 211.602 628.643 219.661 624.431 229.099C620.366 238.393 618.333 249.356 618.333 261.99C618.333 277.382 619.712 289.507 622.471 298.365C625.23 307.077 630.676 311.434 638.807 311.434Z" fill="#2A86D9" stroke="#2A86D9" stroke-width="4"/>
<path d="M708.148 145.581C705.534 147.033 703.356 147.614 701.614 147.324C699.871 146.743 699 145.436 699 143.403C699 141.37 700.307 139.628 702.921 138.175C714.537 131.205 722.524 124.38 726.88 117.701C731.527 111.021 733.85 105.068 733.85 99.84C733.85 95.1932 732.543 91.563 729.93 88.9492C727.606 86.3354 725.138 83.5765 722.524 80.6723C719.91 77.7681 718.603 73.7022 718.603 68.4746C718.603 62.6662 720.491 57.8743 724.266 54.0988C728.332 50.0329 733.56 48 739.949 48C746.629 48 751.856 50.3234 755.632 54.9701C759.698 59.3264 761.731 64.9896 761.731 71.9597C761.731 86.1903 756.794 100.13 746.919 113.78C737.045 127.139 724.121 137.74 708.148 145.581Z" fill="#2A86D9"/>
<path d="M230.122 93.3191C240.287 93.3191 247.404 96.95 251.47 104.211C255.535 111.181 255.681 122.799 251.905 139.062L219.67 277.154C218.218 283.543 217.928 288.627 218.799 292.402C219.961 295.887 222.719 297.63 227.075 297.63C232.302 297.63 237.966 293.854 244.065 286.304C250.327 278.617 279.468 198.186 288.009 174.75C288.158 173.9 288.438 172.939 288.854 171.869C295.243 151.83 301.922 136.147 308.892 124.82C316.152 113.494 323.414 105.507 330.674 100.86C337.935 96.2141 344.614 93.8908 350.712 93.8908C360.296 93.8908 367.12 97.5217 371.186 104.782C375.252 111.752 375.397 123.37 371.621 139.633L360.733 186.679C360.443 188.712 360.878 189.875 362.039 190.165C363.2 190.455 364.216 189.729 365.087 187.988C381.931 153.138 397.18 128.74 410.83 114.799C424.479 100.86 436.967 93.8908 448.293 93.8908C459.039 93.8908 466.591 98.2466 470.947 106.959C475.594 115.672 475.883 129.032 471.818 147.038L462.668 186.679C462.377 188.712 462.816 189.875 463.977 190.165C465.138 190.455 466.154 189.729 467.025 187.988C478.061 164.464 488.37 145.875 497.954 132.225C507.828 118.285 517.123 108.41 525.836 102.602C534.548 96.7939 542.681 93.8908 550.231 93.8908C560.976 93.8909 568.819 98.2467 573.756 106.959C578.693 115.672 578.693 129.032 573.756 147.038L540.646 273.372C538.613 281.503 538.468 287.602 540.211 291.668C541.953 295.733 545.149 297.767 549.796 297.767C555.604 297.766 561.268 293.991 566.786 286.44C572.594 278.599 574.819 277.278 580.918 255.788C581.789 252.593 590.596 232.5 593.5 232.5C595.822 232.5 596.709 232.758 597 234.5C597.581 236.242 591.081 257.383 590.5 259.706C584.982 279.455 582.757 281.648 576.368 292.974C569.979 304.01 563.445 311.707 556.765 316.063C550.377 320.419 543.842 322.597 537.163 322.597C526.708 322.597 518.866 318.241 513.638 309.529C508.411 300.816 508.121 287.311 512.768 269.014L546.309 142.681C549.504 131.355 549.939 123.513 547.615 119.157C545.583 114.801 542.534 112.623 538.469 112.623C532.661 112.623 525.982 116.689 518.431 124.82C510.88 132.661 502.893 143.407 494.471 157.056C486.34 170.705 478.353 186.244 470.511 203.669C462.67 221.094 455.408 239.246 448.729 258.123C442.049 277 436.53 295.587 432.174 313.883C431.302 317.077 429.27 318.675 426.075 318.675H409.088C405.022 318.675 403.424 316.787 404.295 313.012L444.371 142.681C446.985 131.355 447.278 123.513 445.245 119.157C443.503 114.8 440.597 112.623 436.531 112.623C431.013 112.623 424.479 116.689 416.928 124.82C409.378 132.661 401.536 143.406 393.404 157.056C385.272 170.705 377.286 186.244 369.444 203.669C361.603 221.094 354.341 239.246 347.661 258.123C340.982 277 335.611 295.587 331.545 313.883C330.674 317.077 328.641 318.675 325.446 318.675H307.585C303.52 318.675 301.922 316.787 302.793 313.012L344.178 139.195C345.63 132.806 345.775 127.869 344.614 124.385C343.742 120.61 341.129 118.722 336.773 118.721C331.546 118.721 325.737 122.643 319.348 130.484C313.31 137.958 306.42 152.263 298.675 173.398C298.574 174.077 298.392 174.804 298.093 175.571C291.994 195.32 262.069 279.915 254.518 291.532C247.257 302.857 239.998 310.845 232.738 315.491C225.478 320.138 218.651 322.461 212.261 322.461C202.678 322.461 195.854 318.975 191.788 312.005C187.722 304.744 187.577 292.982 191.353 276.718L223.588 138.623C225.04 132.234 225.185 127.298 224.024 123.813C223.152 120.038 220.539 118.15 216.183 118.15C210.956 118.15 205.147 122.071 198.758 129.912C192.659 137.463 185.69 151.984 177.849 173.474C176.687 177.249 174.654 179.137 171.75 179.138C167.394 179.138 166.231 176.524 168.264 171.297C174.653 151.259 181.332 135.575 188.302 124.248C195.562 112.922 202.824 104.935 210.084 100.289C217.344 95.6423 224.024 93.3194 230.122 93.3191Z" fill="#2A86D9"/>
<path d="M252.341 8.80673C258.149 8.80673 262.94 10.6951 266.715 14.4701C270.781 17.955 272.814 22.6013 272.814 28.4093C272.814 36.5409 270.346 42.9298 265.409 47.5765C260.472 52.2232 254.663 54.5494 247.983 54.5494C242.466 54.5491 237.819 52.6608 234.044 48.886C230.559 44.8201 228.816 40.0261 228.816 34.5081C228.816 26.6673 231.139 20.4228 235.786 15.7763C240.723 11.1296 246.242 8.8068 252.341 8.80673Z" fill="#2A86D9"/>
<path d="M230.122 93.3191C240.287 93.3191 247.404 96.95 251.47 104.211C255.535 111.181 255.681 122.799 251.905 139.062L219.67 277.154C218.218 283.543 217.928 288.627 218.799 292.402C219.961 295.887 222.719 297.63 227.075 297.63C232.302 297.63 237.966 293.854 244.065 286.304C250.327 278.617 279.468 198.186 288.009 174.75C288.158 173.9 288.438 172.939 288.854 171.869C295.243 151.83 301.922 136.147 308.892 124.82C316.152 113.494 323.414 105.507 330.674 100.86C337.935 96.2141 344.614 93.8908 350.712 93.8908C360.296 93.8908 367.12 97.5217 371.186 104.782C375.252 111.752 375.397 123.37 371.621 139.633L360.733 186.679C360.443 188.712 360.878 189.875 362.039 190.165C363.2 190.455 364.216 189.729 365.087 187.988C381.931 153.138 397.18 128.74 410.83 114.799C424.479 100.86 436.967 93.8908 448.293 93.8908C459.039 93.8908 466.591 98.2466 470.947 106.959C475.594 115.672 475.883 129.032 471.818 147.038L462.668 186.679C462.377 188.712 462.816 189.875 463.977 190.165C465.138 190.455 466.154 189.729 467.025 187.988C478.061 164.464 488.37 145.875 497.954 132.225C507.828 118.285 517.123 108.41 525.836 102.602C534.548 96.7939 542.681 93.8908 550.231 93.8908C560.976 93.8909 568.819 98.2467 573.756 106.959C578.693 115.672 578.693 129.032 573.756 147.038L540.646 273.372C538.613 281.503 538.468 287.602 540.211 291.668C541.953 295.733 545.149 297.767 549.796 297.767C555.604 297.766 561.268 293.991 566.786 286.44C572.594 278.599 574.819 277.278 580.918 255.788C581.789 252.593 590.596 232.5 593.5 232.5C595.822 232.5 596.709 232.758 597 234.5C597.581 236.242 591.081 257.383 590.5 259.706C584.982 279.455 582.757 281.648 576.368 292.974C569.979 304.01 563.445 311.707 556.765 316.063C550.377 320.419 543.842 322.597 537.163 322.597C526.708 322.597 518.866 318.241 513.638 309.529C508.411 300.816 508.121 287.311 512.768 269.014L546.309 142.681C549.504 131.355 549.939 123.513 547.615 119.157C545.583 114.801 542.534 112.623 538.469 112.623C532.661 112.623 525.982 116.689 518.431 124.82C510.88 132.661 502.893 143.407 494.471 157.056C486.34 170.705 478.353 186.244 470.511 203.669C462.67 221.094 455.408 239.246 448.729 258.123C442.049 277 436.53 295.587 432.174 313.883C431.302 317.077 429.27 318.675 426.075 318.675H409.088C405.022 318.675 403.424 316.787 404.295 313.012L444.371 142.681C446.985 131.355 447.278 123.513 445.245 119.157C443.503 114.8 440.597 112.623 436.531 112.623C431.013 112.623 424.479 116.689 416.928 124.82C409.378 132.661 401.536 143.406 393.404 157.056C385.272 170.705 377.286 186.244 369.444 203.669C361.603 221.094 354.341 239.246 347.661 258.123C340.982 277 335.611 295.587 331.545 313.883C330.674 317.077 328.641 318.675 325.446 318.675H307.585C303.52 318.675 301.922 316.787 302.793 313.012L344.178 139.195C345.63 132.806 345.775 127.869 344.614 124.385C343.742 120.61 341.129 118.722 336.773 118.721C331.546 118.721 325.737 122.643 319.348 130.484C313.31 137.958 306.42 152.263 298.675 173.398C298.574 174.077 298.392 174.804 298.093 175.571C291.994 195.32 262.069 279.915 254.518 291.532C247.257 302.857 239.998 310.845 232.738 315.491C225.478 320.138 218.651 322.461 212.261 322.461C202.678 322.461 195.854 318.975 191.788 312.005C187.722 304.744 187.577 292.982 191.353 276.718L223.588 138.623C225.04 132.234 225.185 127.298 224.024 123.813C223.152 120.038 220.539 118.15 216.183 118.15C210.956 118.15 205.147 122.071 198.758 129.912C192.659 137.463 185.69 151.984 177.849 173.474C176.687 177.249 174.654 179.137 171.75 179.138C167.394 179.138 166.231 176.524 168.264 171.297C174.653 151.259 181.332 135.575 188.302 124.248C195.562 112.922 202.824 104.935 210.084 100.289C217.344 95.6423 224.024 93.3194 230.122 93.3191Z" stroke="#2A86D9" stroke-width="3"/>
<path d="M252.341 8.80673C258.149 8.80673 262.94 10.6951 266.715 14.4701C270.781 17.955 272.814 22.6013 272.814 28.4093C272.814 36.5409 270.346 42.9298 265.409 47.5765C260.472 52.2232 254.663 54.5494 247.983 54.5494C242.466 54.5491 237.819 52.6608 234.044 48.886C230.559 44.8201 228.816 40.0261 228.816 34.5081C228.816 26.6673 231.139 20.4228 235.786 15.7763C240.723 11.1296 246.242 8.8068 252.341 8.80673Z" stroke="#2A86D9" stroke-width="3"/>
<path d="M48.2793 322.188C43.923 322.188 41.7448 320.591 41.7448 317.396C41.7448 314.202 43.6325 312.459 47.408 312.169L67.0114 309.119C72.8198 308.248 76.7404 306.796 78.7734 304.763C80.8063 302.44 81.8228 298.229 81.8228 292.13V30.7516C81.8228 26.6857 80.9516 23.7815 79.2091 22.039C77.4665 20.2965 73.8363 19.4252 68.3183 19.4252C57.5727 19.4252 46.9724 24.0719 36.5173 33.3654C26.0622 42.6588 19.2372 57.6154 16.0426 78.2353L13.8645 92.6111C13.2837 96.3865 11.2507 98.2743 7.7657 98.2743C3.4094 98.2743 1.52166 95.8057 2.1025 90.8686L6.0231 12.0195C6.60394 5.33983 9.21777 2 13.8645 2C15.8974 2 17.7852 2.58084 19.5277 3.74252C21.2702 4.61377 24.1744 5.63024 28.2403 6.79192C32.5966 7.95361 39.4214 8.53445 48.7149 8.53445H145.86C155.154 8.53445 161.834 7.95361 165.899 6.79192C170.256 5.63024 173.305 4.61377 175.048 3.74252C177.081 2.58084 178.968 2 180.711 2C185.358 2 187.971 5.33983 188.552 12.0195L192.473 90.8686C193.054 95.8057 191.166 98.2743 186.81 98.2743C183.325 98.2743 181.292 96.3865 180.711 92.6111L178.533 78.2353C175.629 57.6154 168.949 42.6588 158.494 33.3654C148.039 24.0719 137.293 19.4252 126.257 19.4252C120.739 19.4252 117.109 20.2965 115.366 22.039C113.624 23.7815 112.753 26.6857 112.753 30.7516V292.13C112.753 298.229 113.769 302.44 115.802 304.763C118.125 306.796 122.046 308.248 127.564 309.119L147.167 312.169C150.943 312.459 152.831 314.202 152.831 317.396C152.831 320.591 150.652 322.188 146.296 322.188H48.2793Z" fill="#2A86D9" stroke="#2A86D9" stroke-width="3"/>
</svg>
